Coordinates
version=1
nRows=13
nColumns=38
inDegrees=no

Units are S.I. units (second, meters, Newtons, ...)
If the header above contains a line with 'inDegrees', this indicates whether rotational values are in degrees (yes) or radians (no).

endheader
time	pelvis_tilt	pelvis_list	pelvis_rotation	pelvis_tx	pelvis_ty	pelvis_tz	hip_flexion_r	hip_adduction_r	hip_rotation_r	knee_angle_r	ankle_angle_r	subtalar_angle_r	mtp_angle_r	hip_flexion_l	hip_adduction_l	hip_rotation_l	knee_angle_l	ankle_angle_l	subtalar_angle_l	mtp_angle_l	lumbar_extension	lumbar_bending	lumbar_rotation	arm_flex_r	arm_add_r	arm_rot_r	elbow_flex_r	pro_sup_r	wrist_flex_r	wrist_dev_r	arm_flex_l	arm_add_l	arm_rot_l	elbow_flex_l	pro_sup_l	wrist_flex_l	wrist_dev_l
0	-0.843488	1.53583	-0.613636	0.752718	1.68966	0.926449	0.478657	-0.0757602	-0.338452	0.163762	0.154992	0	0	-0.297133	-0.00859891	-0.0673229	0.309358	0.367121	0	0	-0.0972373	-0.0496629	-0.230023	0.0174282	-0.135221	0.0598464	0.273295	1.22296	0	0	-0.120926	-0.491973	0.713507	0.64702	0.718663	0	0
0.01	-0.963454	1.53906	-0.486181	0.752065	1.67508	0.924786	0.488907	-0.079834	-0.342425	0.204455	0.151463	0	0	-0.289756	-0.0143653	-0.0573529	0.34252	0.363737	0	0	-0.086976	-0.0491166	-0.236553	0.0136941	-0.137589	0.0874248	0.272655	1.1926	0	0	-0.126173	-0.490063	0.711719	0.647935	0.714368	0	0
0.02	-1.08146	1.53884	-0.359872	0.751516	1.65954	0.923368	0.491988	-0.0799337	-0.345114	0.237737	0.152226	0	0	-0.284612	-0.0230761	-0.0507551	0.375515	0.356456	0	0	-0.0780873	-0.0453616	-0.243594	0.00788823	-0.140566	0.105916	0.273122	1.17045	0	0	-0.133435	-0.486461	0.708303	0.647087	0.711834	0	0
0.03	-1.1925	1.53662	-0.239689	0.75102	1.64354	0.922104	0.489556	-0.0765161	-0.344817	0.259078	0.149427	0	0	-0.278258	-0.0339995	-0.0458464	0.41168	0.345976	0	0	-0.0691179	-0.0396937	-0.251058	0.00129023	-0.144072	0.121006	0.273227	1.15143	0	0	-0.141102	-0.481769	0.705111	0.643913	0.709945	0	0
0.04	-1.29552	1.53283	-0.127721	0.750379	1.62741	0.921012	0.48424	-0.0700719	-0.342687	0.267389	0.125286	0	0	-0.268952	-0.0466377	-0.0422318	0.452314	0.331686	0	0	-0.0599184	-0.0326515	-0.257648	-0.00595773	-0.148308	0.138194	0.274072	1.131	0	0	-0.148159	-0.476597	0.70284	0.638776	0.709464	0	0
0.05	-1.3898	1.52741	-0.0274163	0.749312	1.61161	0.920259	0.480685	-0.0614563	-0.338052	0.272021	0.0758078	0	0	-0.255391	-0.0600562	-0.0402778	0.498135	0.311355	0	0	-0.0512315	-0.0241712	-0.260565	-0.013839	-0.154129	0.163859	0.279073	1.10251	0	0	-0.153027	-0.471014	0.701242	0.631509	0.710785	0	0
0.06	-1.5169	1.52052	0.0995415	0.747573	1.59647	0.919896	0.487875	-0.0528416	-0.330138	0.292416	0.0313453	0	0	-0.233975	-0.0730854	-0.0428291	0.550503	0.283253	0	0	-0.0417033	-0.0146485	-0.255232	-0.012786	-0.148066	0.090094	0.262781	1.2019	0	0	-0.152818	-0.467747	0.713204	0.625437	0.687856	0	0
0.07	-1.64197	1.51197	0.218838	0.745424	1.58179	0.919924	0.506349	-0.0455242	-0.32137	0.33582	0.0158608	0	0	-0.206053	-0.0852917	-0.0486205	0.608685	0.246648	0	0	-0.0309601	-0.00408734	-0.247177	-0.0164468	-0.151065	0.0939542	0.264463	1.19935	0	0	-0.155699	-0.462626	0.714886	0.620356	0.676463	0	0
0.08	-1.69947	1.50407	0.269379	0.743381	1.56725	0.920459	0.525449	-0.0397489	-0.311353	0.389635	0.018238	0	0	-0.177504	-0.0956701	-0.0517447	0.67002	0.201608	0	0	-0.0237155	0.00604484	-0.240187	-0.0184695	-0.153531	0.0945985	0.268202	1.193	0	0	-0.161991	-0.458648	0.710862	0.622844	0.664943	0	0
0.09	-1.69509	1.49807	0.260117	0.74171	1.5528	0.921397	0.53739	-0.0342662	-0.299958	0.438612	0.0194758	0	0	-0.149801	-0.104235	-0.0494157	0.733835	0.150112	0	0	-0.0213833	0.0153687	-0.237812	-0.0184197	-0.155518	0.0968257	0.272226	1.18306	0	0	-0.171495	-0.455947	0.70158	0.631629	0.649425	0	0
0.1	-1.63989	1.49299	0.202728	0.740389	1.53855	0.922673	0.53844	-0.0272738	-0.290466	0.474087	0.0127511	0	0	-0.123321	-0.112317	-0.0428012	0.798822	0.0955433	0	0	-0.0245102	0.025028	-0.23981	-0.0158654	-0.15646	0.0973156	0.272778	1.18338	0	0	-0.182895	-0.451926	0.682282	0.63908	0.665365	0	0
0.11	-1.60706	1.48804	0.169379	0.739004	1.52471	0.92371	0.535576	-0.0196748	-0.285646	0.498854	0.00448681	0	0	-0.0913201	-0.120202	-0.0338627	0.866943	0.0387003	0	0	-0.0270532	0.0335138	-0.243553	-0.0130449	-0.156043	0.0942284	0.271836	1.19014	0	0	-0.19409	-0.453414	0.675774	0.653644	0.654209	0	0
0.12	-1.6022	1.48243	0.165032	0.737418	1.51132	0.924469	0.528809	-0.0108013	-0.287289	0.511481	-0.00084841	0	0	-0.0535433	-0.12881	-0.023736	0.93642	-0.0203953	0	0	-0.0273179	0.0413847	-0.248196	-0.0152213	-0.160952	0.13892	0.282904	1.1352	0	0	-0.203562	-0.460324	0.684986	0.67362	0.614698	0	0
